<?xml version="1.0" encoding="UTF-8"?>
<svg width="453px" height="87px" viewBox="0 0 453 87" version="1.1" xmlns="http://www.w3.org/2000/svg" xmlns:xlink="http://www.w3.org/1999/xlink">
    <!-- Generator: Sketch 48.2 (47327) - http://www.bohemiancoding.com/sketch -->
    <title>tethers.</title>
    <desc>Created with Sketch.</desc>
    <defs></defs>
    <g id="Desktop-HD" stroke="none" stroke-width="1" fill="none" fill-rule="evenodd" transform="translate(-494.000000, -128.000000)">
        <path d="M538.93253,195.418 L538.93253,213 C506.71853,214.77 502.82453,212.528 502.82453,191.17 L502.82453,165.328 L494.09253,165.328 L494.09253,151.168 L503.17853,151.168 L503.17853,131.934 L527.36853,131.934 L527.36853,151.168 L539.16853,151.168 L539.16853,165.328 L527.36853,165.328 L527.36853,187.748 C527.36853,193.412 528.19453,195.418 535.03853,195.418 L538.93253,195.418 Z M566.893713,175.122 L589.195713,175.122 C589.195713,169.458 584.121713,164.384 578.339713,164.384 C571.023713,164.384 566.893713,168.514 566.893713,175.122 Z M613.739713,187.63 L566.893713,187.63 C566.893713,194.946 572.557713,199.784 579.047713,199.784 C582.941713,199.784 586.481713,198.014 588.251713,194.356 L611.733713,194.356 C607.485713,209.696 591.909713,214.77 577.513713,214.77 C557.689713,214.77 542.349713,203.442 542.349713,182.674 C542.349713,162.378 557.571713,149.398 577.395713,149.398 C600.287713,149.398 614.093713,165.21 613.739713,187.63 Z M657.748897,195.418 L657.748897,213 C625.534897,214.77 621.640897,212.528 621.640897,191.17 L621.640897,165.328 L612.908897,165.328 L612.908897,151.168 L621.994897,151.168 L621.994897,131.934 L646.184897,131.934 L646.184897,151.168 L657.984897,151.168 L657.984897,165.328 L646.184897,165.328 L646.184897,187.748 C646.184897,193.412 647.010897,195.418 653.854897,195.418 L657.748897,195.418 Z M663.172081,213 L663.172081,128.04 L687.716081,128.04 L687.716081,158.956 C692.672081,152.702 698.218081,149.398 706.478081,149.398 C722.762081,149.398 730.432081,158.956 730.432081,175.948 L730.432081,213 L705.888081,213 L705.888081,180.314 C705.888081,174.178 704.236081,168.75 697.274081,168.75 C689.722081,168.75 687.716081,173.588 687.716081,181.494 L687.716081,213 L663.172081,213 Z M758.275265,175.122 L780.577265,175.122 C780.577265,169.458 775.503265,164.384 769.721265,164.384 C762.405265,164.384 758.275265,168.514 758.275265,175.122 Z M805.121265,187.63 L758.275265,187.63 C758.275265,194.946 763.939265,199.784 770.429265,199.784 C774.323265,199.784 777.863265,198.014 779.633265,194.356 L803.115265,194.356 C798.867265,209.696 783.291265,214.77 768.895265,214.77 C749.071265,214.77 733.731265,203.442 733.731265,182.674 C733.731265,162.378 748.953265,149.398 768.777265,149.398 C791.669265,149.398 805.475265,165.21 805.121265,187.63 Z M808.774449,213 L808.774449,151.168 L831.076449,151.168 L831.076449,163.676 L831.312449,163.676 C834.734449,154 840.752449,149.398 850.310449,149.398 C851.372449,149.398 852.434449,149.634 853.496449,149.752 L853.496449,174.296 C851.844449,174.06 850.074449,173.588 848.422449,173.588 C838.392449,173.588 833.318449,178.308 833.318449,191.642 L833.318449,213 L808.774449,213 Z M852.783632,193.766 L876.147632,193.766 C876.147632,196.244 877.091632,198.132 878.743632,199.43 C880.277632,200.61 882.401632,201.318 884.761632,201.318 C888.537632,201.318 892.549632,200.138 892.549632,195.772 C892.549632,185.86 854.671632,193.766 854.671632,169.812 C854.671632,154 871.073632,149.398 883.935632,149.398 C897.387632,149.398 913.199632,152.466 914.615632,168.868 L892.313632,168.868 C892.077632,166.862 891.251632,165.446 889.953632,164.384 C888.655632,163.322 886.885632,162.85 884.997632,162.85 C880.749632,162.85 878.035632,164.148 878.035632,167.216 C878.035632,175.83 917.093632,170.048 917.093632,193.176 C917.093632,206.038 906.473632,214.77 883.817632,214.77 C869.657632,214.77 854.081632,210.404 852.783632,193.766 Z M946.942816,213 L921.926816,213 L921.926816,188.692 L946.942816,188.692 L946.942816,213 Z" id="tethers." fill="#FFFAF4"></path>
    </g>
</svg>